<mxfile host="app.diagrams.net" modified="2024-06-20T07:30:57.657Z" agent="Mozilla/5.0 (Windows NT 10.0; Win64; x64) AppleWebKit/537.36 (KHTML, like Gecko) Chrome/126.0.0.0 Safari/537.36" etag="N_jqpVokz2cmmiH4Q-XB" version="24.4.9" type="github">
  <diagram name="第 1 页" id="gpH_8jp-E9HWZGwTJrjJ">
    <mxGraphModel dx="1050" dy="522" grid="1" gridSize="10" guides="1" tooltips="1" connect="1" arrows="1" fold="1" page="1" pageScale="1" pageWidth="827" pageHeight="1169" math="0" shadow="0">
      <root>
        <mxCell id="0" />
        <mxCell id="1" parent="0" />
        <mxCell id="xeVW8_t8NVFAS37izToz-1" value="" style="rounded=1;whiteSpace=wrap;html=1;fillColor=#fff2cc;strokeColor=#d6b656;" vertex="1" parent="1">
          <mxGeometry x="180" y="210" width="120" height="170" as="geometry" />
        </mxCell>
        <mxCell id="xeVW8_t8NVFAS37izToz-2" value="binder驱动" style="rounded=1;whiteSpace=wrap;html=1;fillColor=#d5e8d4;strokeColor=#82b366;" vertex="1" parent="1">
          <mxGeometry x="180" y="430" width="390" height="60" as="geometry" />
        </mxCell>
        <mxCell id="xeVW8_t8NVFAS37izToz-3" value="虚拟内存" style="rounded=1;whiteSpace=wrap;html=1;" vertex="1" parent="1">
          <mxGeometry x="210" y="340" width="70" height="30" as="geometry" />
        </mxCell>
        <mxCell id="xeVW8_t8NVFAS37izToz-5" value="虚拟内存" style="rounded=1;whiteSpace=wrap;html=1;" vertex="1" parent="1">
          <mxGeometry x="470" y="445" width="70" height="30" as="geometry" />
        </mxCell>
        <mxCell id="xeVW8_t8NVFAS37izToz-6" value="物理内存" style="rounded=1;whiteSpace=wrap;html=1;fillColor=#e1d5e7;strokeColor=#9673a6;" vertex="1" parent="1">
          <mxGeometry x="430" y="280" width="120" height="60" as="geometry" />
        </mxCell>
        <mxCell id="xeVW8_t8NVFAS37izToz-7" value="" style="shape=flexArrow;endArrow=classic;html=1;rounded=0;" edge="1" parent="1" source="xeVW8_t8NVFAS37izToz-3" target="xeVW8_t8NVFAS37izToz-6">
          <mxGeometry width="50" height="50" relative="1" as="geometry">
            <mxPoint x="390" y="400" as="sourcePoint" />
            <mxPoint x="440" y="350" as="targetPoint" />
          </mxGeometry>
        </mxCell>
        <mxCell id="xeVW8_t8NVFAS37izToz-9" value="" style="shape=flexArrow;endArrow=classic;html=1;rounded=0;entryX=0.5;entryY=1;entryDx=0;entryDy=0;exitX=0.5;exitY=0;exitDx=0;exitDy=0;" edge="1" parent="1" source="xeVW8_t8NVFAS37izToz-5" target="xeVW8_t8NVFAS37izToz-6">
          <mxGeometry width="50" height="50" relative="1" as="geometry">
            <mxPoint x="290" y="364" as="sourcePoint" />
            <mxPoint x="450" y="360" as="targetPoint" />
          </mxGeometry>
        </mxCell>
        <mxCell id="xeVW8_t8NVFAS37izToz-10" value="应用进程" style="text;html=1;align=center;verticalAlign=middle;whiteSpace=wrap;rounded=0;" vertex="1" parent="1">
          <mxGeometry x="210" y="240" width="60" height="30" as="geometry" />
        </mxCell>
      </root>
    </mxGraphModel>
  </diagram>
</mxfile>
